<?xml version="1.0" standalone="no"?>
<!DOCTYPE svg PUBLIC "-//W3C//DTD SVG 20010904//EN"
 "http://www.w3.org/TR/2001/REC-SVG-20010904/DTD/svg10.dtd">
<svg version="1.0" xmlns="http://www.w3.org/2000/svg"
 width="512.000000pt" height="512.000000pt" viewBox="0 0 512.000000 512.000000"
 preserveAspectRatio="xMidYMid meet">

<g transform="translate(0.000000,512.000000) scale(0.100000,-0.100000)"
fill="#fff" stroke="none">
<path d="M2495 4481 c-52 -23 -95 -91 -95 -151 0 -20 302 -634 899 -1829 832
-1663 902 -1800 936 -1821 48 -30 121 -30 169 -1 39 25 76 91 76 139 0 22
-272 577 -899 1830 -717 1434 -905 1802 -928 1817 -31 21 -126 30 -158 16z"/>
<path d="M735 4466 c-37 -17 -70 -52 -84 -89 -8 -20 -11 -575 -11 -1818 0
-1977 -5 -1831 66 -1885 31 -24 47 -29 95 -29 62 0 94 17 133 69 l21 27 0
1819 0 1819 -21 27 c-11 15 -32 37 -46 47 -34 25 -113 32 -153 13z"/>
<path d="M1855 4466 c-41 -18 -83 -69 -90 -109 -3 -18 -4 -838 -3 -1824 l3
-1792 21 -27 c39 -53 71 -69 134 -69 63 0 95 16 134 69 l21 27 3 1806 c2 2008
8 1845 -65 1900 -41 31 -113 40 -158 19z"/>
</g>
</svg>
